<svg width="47" height="47" viewBox="0 0 47 47" fill="none" xmlns="http://www.w3.org/2000/svg">
<path d="M42.3196 23.1279L35.955 18.1733L42.3392 13.16C42.5918 12.9618 42.7918 12.7045 42.9215 12.4108C43.0513 12.1171 43.1069 11.796 43.0833 11.4758C43.0522 11.1568 42.9475 10.8494 42.7777 10.5776C42.6078 10.3057 42.3773 10.077 42.1042 9.90916L32.0383 4.17124C31.6848 3.97236 31.2783 3.88816 30.8749 3.93025C30.4715 3.97235 30.0911 4.13867 29.7863 4.40624L23.5 9.88957L17.2138 4.40624C16.9089 4.13867 16.5285 3.97235 16.1251 3.93025C15.7217 3.88816 15.3152 3.97236 14.9617 4.17124L4.89584 9.90916C4.62275 10.077 4.39224 10.3057 4.22236 10.5776C4.05248 10.8494 3.94785 11.1568 3.91667 11.4758C3.89314 11.796 3.94871 12.1171 4.07848 12.4108C4.20825 12.7045 4.40824 12.9618 4.66084 13.16L11.045 18.1733L4.68042 23.0496C4.42424 23.2457 4.22048 23.502 4.08724 23.7958C3.95399 24.0896 3.8954 24.4118 3.91667 24.7337C3.93837 25.0553 4.03909 25.3665 4.2099 25.6398C4.38071 25.9131 4.61632 26.14 4.89584 26.3004L11.5738 30.2171V35.0542C11.5752 35.3888 11.6623 35.7175 11.8268 36.0089C11.9914 36.3003 12.2279 36.5447 12.5138 36.7187L22.4817 42.8483C22.7794 43.0202 23.1171 43.1107 23.4608 43.1107C23.8046 43.1107 24.1423 43.0202 24.44 42.8483L34.4079 36.7187C34.6938 36.5447 34.9303 36.3003 35.0948 36.0089C35.2594 35.7175 35.3465 35.3888 35.3479 35.0542V30.1975L42.0258 26.3787C42.3054 26.2183 42.541 25.9914 42.7118 25.7181C42.8826 25.4448 42.9833 25.1336 43.005 24.8121C43.0354 24.4968 42.989 24.1789 42.8696 23.8856C42.7502 23.5923 42.5615 23.3323 42.3196 23.1279ZM31.3333 8.26416L37.6588 11.8675L32.665 15.7842L26.79 12.1808L31.3333 8.26416ZM29.1988 18.2908L23.5 22.2075L17.8013 18.2908L23.5 14.7854L29.1988 18.2908ZM9.38042 11.8675L15.6667 8.26416L20.1904 12.1808L14.3154 15.7842L9.38042 11.8675ZM9.38042 24.3812L14.2763 20.6212L20.1513 24.6946L15.8038 28.0825L9.38042 24.3812ZM31.49 33.8987L23.5 38.8337L15.4904 33.8987V32.3321C15.7765 32.4023 16.0748 32.4071 16.363 32.3461C16.6512 32.285 16.9219 32.1597 17.155 31.9796L23.5 27.0837L29.845 31.9796C30.1868 32.2449 30.6069 32.3895 31.0396 32.3908C31.1957 32.4097 31.3535 32.4097 31.5096 32.3908L31.49 33.8987ZM31.1963 28.0237L26.8292 24.6946L32.7042 20.6212L37.6196 24.4204L31.1963 28.0237Z" fill="white"/>
</svg>
