<svg width="137" height="47" viewBox="0 0 137 47" fill="none" xmlns="http://www.w3.org/2000/svg">
<path d="M42.3196 23.1279L35.955 18.1733L42.3391 13.16C42.5917 12.9618 42.7917 12.7045 42.9215 12.4108C43.0513 12.1171 43.1068 11.796 43.0833 11.4758C43.0521 11.1568 42.9475 10.8494 42.7776 10.5776C42.6077 10.3057 42.3772 10.077 42.1041 9.90916L32.0383 4.17124C31.6848 3.97236 31.2783 3.88816 30.8749 3.93025C30.4714 3.97235 30.0911 4.13867 29.7862 4.40624L23.5 9.88957L17.2137 4.40624C16.9089 4.13867 16.5285 3.97235 16.1251 3.93025C15.7217 3.88816 15.3151 3.97236 14.9616 4.17124L4.89581 9.90916C4.62272 10.077 4.39221 10.3057 4.22233 10.5776C4.05245 10.8494 3.94782 11.1568 3.91664 11.4758C3.89311 11.796 3.94868 12.1171 4.07845 12.4108C4.20822 12.7045 4.40821 12.9618 4.66081 13.16L11.045 18.1733L4.68039 23.0496C4.42421 23.2457 4.22045 23.502 4.0872 23.7958C3.95396 24.0896 3.89537 24.4118 3.91664 24.7337C3.93834 25.0553 4.03906 25.3665 4.20987 25.6398C4.38068 25.9131 4.61629 26.14 4.89581 26.3004L11.5737 30.2171V35.0542C11.5751 35.3888 11.6623 35.7175 11.8268 36.0089C11.9914 36.3003 12.2279 36.5447 12.5137 36.7187L22.4816 42.8483C22.7793 43.0202 23.1171 43.1107 23.4608 43.1107C23.8046 43.1107 24.1423 43.0202 24.44 42.8483L34.4079 36.7187C34.6938 36.5447 34.9302 36.3003 35.0948 36.0089C35.2594 35.7175 35.3465 35.3888 35.3479 35.0542V30.1975L42.0258 26.3787C42.3053 26.2183 42.5409 25.9914 42.7118 25.7181C42.8826 25.4448 42.9833 25.1336 43.005 24.8121C43.0354 24.4968 42.989 24.1789 42.8696 23.8856C42.7502 23.5923 42.5615 23.3323 42.3196 23.1279ZM31.3333 8.26416L37.6587 11.8675L32.665 15.7842L26.79 12.1808L31.3333 8.26416ZM29.1987 18.2908L23.5 22.2075L17.8012 18.2908L23.5 14.7854L29.1987 18.2908ZM9.38039 11.8675L15.6666 8.26416L20.1904 12.1808L14.3154 15.7842L9.38039 11.8675ZM9.38039 24.3812L14.2762 20.6212L20.1512 24.6946L15.8037 28.0825L9.38039 24.3812ZM31.49 33.8987L23.5 38.8337L15.4904 33.8987V32.3321C15.7765 32.4023 16.0748 32.4071 16.363 32.3461C16.6512 32.285 16.9219 32.1597 17.155 31.9796L23.5 27.0837L29.845 31.9796C30.1868 32.2449 30.6069 32.3895 31.0396 32.3908C31.1957 32.4097 31.3535 32.4097 31.5096 32.3908L31.49 33.8987ZM31.1962 28.0237L26.8291 24.6946L32.7041 20.6212L37.6196 24.4204L31.1962 28.0237Z" fill="white"/>
<path d="M53.62 31H51.42V16.7H53.62V31ZM62.4391 31.28C58.3791 31.28 55.7591 28.16 55.7591 23.86C55.7591 19.54 58.3991 16.42 62.4591 16.42C66.0391 16.42 68.2591 18.7 68.5991 21.56H66.2991C66.0391 20.16 65.1591 18.32 62.4191 18.32C59.2591 18.32 58.0591 21 58.0591 23.84C58.0591 26.7 59.2591 29.38 62.4191 29.38C65.1791 29.38 66.1591 27.54 66.2991 25.8H68.5991C68.2791 28.98 66.0391 31.28 62.4391 31.28ZM72.7802 31H70.5802V16.7H80.5002V18.6H72.7802V22.9H79.0202V24.8H72.7802V31ZM88.0525 31.28C83.7725 31.28 81.0325 28.14 81.0325 23.84C81.0325 19.54 83.7725 16.42 88.0525 16.42C92.3325 16.42 95.0725 19.54 95.0725 23.84C95.0725 28.14 92.3325 31.28 88.0525 31.28ZM88.0525 29.38C91.4325 29.38 92.7725 26.78 92.7725 23.84C92.7725 20.9 91.4325 18.32 88.0525 18.32C84.6725 18.32 83.3325 20.9 83.3325 23.84C83.3325 26.78 84.6725 29.38 88.0525 29.38ZM99.4208 31H97.2208V16.7H103.181C106.341 16.7 108.041 18.18 108.041 20.82C108.041 22.64 106.941 23.96 105.361 24.32V24.36C108.681 24.98 107.461 30.62 108.241 30.86V31H105.881C105.241 30.4 106.601 25.4 103.101 25.4H99.4208V31ZM99.4208 23.5H102.701C104.721 23.5 105.821 22.62 105.821 20.98C105.821 19.44 104.941 18.6 102.741 18.6H99.4208V23.5ZM116.086 31.28C111.966 31.28 109.646 28.16 109.646 23.84C109.646 19.54 112.266 16.42 116.346 16.42C120.046 16.42 122.006 18.4 122.466 21.12H120.166C119.786 19.32 118.446 18.32 116.326 18.32C113.166 18.32 111.946 21.16 111.946 23.84C111.946 26.54 112.866 29.38 116.206 29.38C118.566 29.38 120.446 27.74 120.466 25.36H116.246V23.52H122.706V31H121.186L120.646 29.02H120.606C119.606 30.48 118.266 31.28 116.086 31.28ZM135.392 31H125.072V16.7H135.192V18.6H127.272V22.66H134.212V24.56H127.272V29.1H135.392V31Z" fill="white"/>
</svg>
